<svg width="9" height="17" viewBox="0 0 9 17" xmlns="http://www.w3.org/2000/svg">
<path d="M6.69468 8.6236C6.78226 8.53134 6.78002 8.40115 6.68439 8.31727C6.67345 8.30768 6.6629 8.29765 6.65261 8.28681C4.54922 6.0711 2.45424 3.86425 0.350848 1.64854C0.0816135 1.36493 -0.00252347 1.037 0.106853 0.655902C0.224644 0.2748 0.493877 0.0620915 0.864075 0.00891449C1.15855 -0.0353997 1.41096 0.0886802 1.6213 0.310251C2.33645 1.07246 3.06002 1.8258 3.78358 2.588C5.39899 4.28967 7.0144 5.99133 8.62139 7.68414C9.1262 8.21591 9.1262 8.72109 8.62139 9.26172C6.274 11.7345 3.93503 14.1983 1.58764 16.6711C1.13331 17.1497 0.485464 17.0965 0.157335 16.5736C-0.0782459 16.2013 -0.053005 15.7316 0.258297 15.3948C0.552772 15.0669 0.864075 14.7567 1.16696 14.4376C3.00954 12.4967 4.85211 10.5557 6.69468 8.6236Z" fill="currentColor"/>
</svg>
