<svg width="20" height="34" viewBox="0 0 20 34" xmlns="http://www.w3.org/2000/svg">
<path d="M8.39693 16.9365C8.67206 17.2328 8.86254 17.4233 9.05301 17.6349C12.3334 20.9153 15.635 24.1958 18.9154 27.4974C20.7356 29.3175 20.0371 32.2381 17.6456 32.9788C16.3969 33.3598 15.2541 33.0847 14.3229 32.1746C10.0266 27.8995 5.75143 23.6243 1.47629 19.328C0.142961 17.9947 0.142961 16.0688 1.45513 14.7143C5.77259 10.3545 10.09 6.01587 14.4498 1.71958C15.7197 0.470899 17.7938 0.576719 19.0001 1.84656C20.2276 3.13757 20.2276 5.14815 18.9154 6.46032C16.2488 9.14815 13.5821 11.8148 10.8943 14.4815C10.1112 15.2857 9.28582 16.0688 8.39693 16.9365Z" fill="currentColor"/>
</svg>
