<svg width="85" height="48" viewBox="0 0 85 48" xmlns="http://www.w3.org/2000/svg">
<path d="M42.3203 11.2072C41.9215 11.7409 41.7443 12.0967 41.4341 12.408C30.3555 23.5263 19.3213 34.6001 8.2427 45.7184C6.82465 47.1416 5.18502 47.5863 3.27951 47.0082C1.374 46.3856 0.31046 44.9624 0.0445742 43.0056C-0.176997 41.449 0.443403 40.1148 1.55126 39.003C5.36228 35.2228 9.12899 31.3981 12.94 27.5734C21.4483 19.0345 29.9567 10.4957 38.4207 2.00129C41.0795 -0.667098 43.6054 -0.667098 46.3086 2.00129C58.6723 14.4093 70.9916 26.7729 83.3553 39.1809C85.7483 41.5824 85.4824 45.0069 82.8678 46.7413C81.0066 47.9866 78.658 47.8532 76.9741 46.2077C75.3344 44.6511 73.7834 43.0056 72.1881 41.4045C62.4833 31.6649 52.7785 21.9253 43.118 12.1857C42.8964 11.9633 42.7635 11.7409 42.3203 11.2072Z" fill="currentColor"/>
</svg>
