<svg width="108" height="36" viewBox="0 0 108 36" xmlns="http://www.w3.org/2000/svg">
<path d="M54 24.4442L48.744 30.6362L38.772 18.9362L48.744 7.2002L54 13.3922" stroke="currentColor" stroke-width="3" stroke-miterlimit="10" stroke-linecap="round" stroke-linejoin="round" fill="none"/>
<path d="M35.316 30.6362L25.344 18.9362L35.316 7.2002" stroke="currentColor" stroke-width="3" stroke-miterlimit="10" stroke-linecap="round" stroke-linejoin="round" fill="none"/>
<path d="M35.3159 30.6362H48.7439" stroke="currentColor" stroke-width="3" stroke-miterlimit="10" stroke-linecap="round" stroke-linejoin="round" fill="none"/>
<path d="M25.344 18.936H38.772" stroke="currentColor" stroke-width="3" stroke-miterlimit="10" stroke-linecap="round" stroke-linejoin="round" fill="none"/>
<path d="M35.3159 7.2002H48.7439" stroke="currentColor" stroke-width="3" stroke-miterlimit="10" stroke-linecap="round" stroke-linejoin="round" fill="none"/>
<path d="M77.9399 24.4442L72.6839 30.6362L62.7119 18.9362L72.6839 7.2002L77.9399 13.3922" stroke="currentColor" stroke-width="3" stroke-miterlimit="10" stroke-linecap="round" stroke-linejoin="round" fill="none"/>
<path d="M59.2559 30.6362L49.2839 18.9362L59.2559 7.2002" stroke="currentColor" stroke-width="3" stroke-miterlimit="10" stroke-linecap="round" stroke-linejoin="round" fill="none"/>
<path d="M59.2559 30.6362H72.6839" stroke="currentColor" stroke-width="3" stroke-miterlimit="10" stroke-linecap="round" stroke-linejoin="round" fill="none"/>
<path d="M49.2839 18.936H62.7119" stroke="currentColor" stroke-width="3" stroke-miterlimit="10" stroke-linecap="round" stroke-linejoin="round" fill="none"/>
<path d="M59.2559 7.2002H72.6839" stroke="currentColor" stroke-width="3" stroke-miterlimit="10" stroke-linecap="round" stroke-linejoin="round" fill="none"/>
<path fill-rule="evenodd" clip-rule="evenodd" d="M96.5881 30.6362L86.6521 18.9362L96.5881 7.2002L106.56 18.9362L96.5881 30.6362Z" stroke="currentColor" stroke-width="3" stroke-miterlimit="10" stroke-linecap="round" stroke-linejoin="round" fill="none"/>
<path d="M83.1961 30.6362L73.2241 18.9362L83.1961 7.2002" stroke="currentColor" stroke-width="3" stroke-miterlimit="10" stroke-linecap="round" stroke-linejoin="round" fill="none"/>
<path d="M83.196 30.6362H96.588" stroke="currentColor" stroke-width="3" stroke-miterlimit="10" stroke-linecap="round" stroke-linejoin="round" fill="none"/>
<path d="M73.2241 18.936H86.6521" stroke="currentColor" stroke-width="3" stroke-miterlimit="10" stroke-linecap="round" stroke-linejoin="round" fill="none"/>
<path d="M83.196 7.2002H96.588" stroke="currentColor" stroke-width="3" stroke-miterlimit="10" stroke-linecap="round" stroke-linejoin="round" fill="none"/>
<path d="M30.06 24.4442L24.804 30.6362L14.832 18.9362L24.804 7.2002L30.06 13.3922" stroke="currentColor" stroke-width="3" stroke-miterlimit="10" stroke-linecap="round" stroke-linejoin="round" fill="none"/>
<path d="M11.4119 30.6362L1.43994 18.9362L11.4119 7.2002" stroke="currentColor" stroke-width="3" stroke-miterlimit="10" stroke-linecap="round" stroke-linejoin="round" fill="none"/>
<path d="M11.4119 30.6362H24.8039" stroke="currentColor" stroke-width="3" stroke-miterlimit="10" stroke-linecap="round" stroke-linejoin="round" fill="none"/>
<path d="M1.43994 18.936H14.8319" stroke="currentColor" stroke-width="3" stroke-miterlimit="10" stroke-linecap="round" stroke-linejoin="round" fill="none"/>
<path d="M11.4119 7.2002H24.8039" stroke="currentColor" stroke-width="3" stroke-miterlimit="10" stroke-linecap="round" stroke-linejoin="round" fill="none"/>
</svg>
