<svg width="24" height="24" viewBox="0 0 24 24" xmlns="http://www.w3.org/2000/svg">
<path d="M23.3393 20.1593L15.18 12L23.3393 3.84069C24.2202 2.95978 24.2202 1.54159 23.3393 0.660679C22.4584 -0.220226 21.0402 -0.220226 20.1593 0.660679L12 8.81999L3.84069 0.660679C2.95978 -0.220226 1.54159 -0.220226 0.660679 0.660679C-0.220226 1.54159 -0.220226 2.95978 0.660679 3.84069L8.81999 12L0.660679 20.1593C-0.220226 21.0402 -0.220226 22.4584 0.660679 23.3393C1.54159 24.2202 2.95978 24.2202 3.84069 23.3393L12 15.18L20.1593 23.3393C21.0402 24.2202 22.4584 24.2202 23.3393 23.3393C24.214 22.4584 24.214 21.034 23.3393 20.1593Z" fill="currentColor"/>
</svg>
