<svg width="24" height="19" viewBox="0 0 24 19" xmlns="http://www.w3.org/2000/svg">
<path d="M14.6667 18.7816C14.6667 18.654 14.6667 18.5689 14.6667 18.4838C14.6667 15.9478 14.6667 13.4118 14.6667 10.8758C14.6667 10.7141 14.712 10.5865 14.8209 10.4588C17.4785 7.42925 20.1361 4.40819 22.7937 1.37862C23.1927 0.927592 23.5828 0.476561 24 0C15.9819 0 8.00907 0 0 0C0.0272121 0.0510601 0.0544224 0.0936102 0.0816326 0.12765C3.09297 3.55719 6.10431 6.98673 9.11565 10.4163C9.2517 10.5694 9.31519 10.7226 9.31519 10.9269C9.30612 12.4416 9.31519 13.9564 9.30612 15.4712C9.30612 15.5818 9.31519 15.6669 9.44218 15.7435C11.1383 16.7307 12.8254 17.7264 14.5215 18.7135C14.5669 18.7391 14.6032 18.7561 14.6667 18.7816Z" fill="currentColor"/>
</svg>
