<svg width="26" height="26" viewBox="0 0 26 26" xmlns="http://www.w3.org/2000/svg">
<path d="M0.000121092 12.974C0.000121092 9.776 0.000121092 6.578 0.000121092 3.38C0.000121092 2.132 0.468121 1.144 1.56012 0.468002C2.02812 0.182002 2.57412 0.052002 3.12012 0.052002C9.67212 0.052002 16.2501 0.052002 22.8021 0.052002C24.5701 0.052002 25.9741 1.456 25.9741 3.224C25.9741 9.75 25.9741 16.25 25.9741 22.776C25.9741 24.518 24.5961 25.922 22.8281 25.974C22.4381 25.974 22.0221 25.974 21.6321 25.974C15.4961 25.974 9.38612 25.974 3.25012 25.974C1.74212 25.974 0.520121 25.09 0.104121 23.712C0.000121091 23.348 -0.0258789 22.932 -0.0258789 22.542C0.000121092 19.318 0.000121092 16.146 0.000121092 12.974ZM12.8961 16.796C12.9741 16.848 13.0261 16.874 13.0781 16.926C14.2481 17.784 15.3921 18.642 16.5621 19.474C17.2121 19.942 17.8101 19.734 17.9661 18.928C18.2001 17.758 18.4601 16.614 18.6941 15.444C19.2921 12.636 19.8641 9.828 20.4621 6.994C20.5141 6.734 20.5401 6.526 20.3061 6.318C20.0981 6.136 19.8641 6.188 19.6301 6.292C14.6381 8.138 9.64612 9.984 4.65412 11.83C4.39412 11.934 4.18612 12.09 4.18612 12.402C4.18612 12.714 4.39412 12.844 4.68012 12.948C5.82412 13.286 6.94212 13.65 8.08612 13.988C8.26812 14.04 8.34612 14.118 8.39812 14.3C8.84012 15.652 9.30812 17.03 9.75012 18.382C9.95812 19.032 10.4001 19.136 10.8941 18.668C11.5701 18.044 12.2201 17.42 12.8961 16.796Z" fill="currentColor"/>
<path d="M10.2961 17.316C10.0101 16.406 9.75007 15.522 9.49007 14.612C9.41207 14.326 9.20407 13.962 9.30807 13.728C9.38607 13.494 9.77607 13.39 10.0101 13.234C12.3761 11.726 14.7421 10.244 17.1081 8.73601C17.2381 8.65801 17.4981 8.58001 17.5241 8.63201C17.6541 8.84001 17.4201 8.89201 17.3161 8.99601C15.1581 10.946 13.0001 12.896 10.8421 14.846C10.6861 15.002 10.5821 15.132 10.5561 15.366C10.5041 15.99 10.4261 16.64 10.3481 17.264C10.3481 17.29 10.3221 17.29 10.2961 17.316Z" fill="currentColor"/>
</svg>
