<svg width="48" height="48" viewBox="0 0 48 48" xmlns="http://www.w3.org/2000/svg">
<path d="M4.00689 23.9859C4.00689 16.903 4.00689 9.82013 4.00689 2.73724C4.00689 1.34042 4.74058 0.366872 5.9822 0.0705753C6.77233 -0.126956 7.44957 0.155231 8.11271 0.550293C11.6683 2.66669 15.2238 4.7831 18.7794 6.8995C26.5818 11.5415 34.3984 16.1976 42.2009 20.8395C44.5713 22.2505 44.6136 25.7214 42.2714 27.1182C30.8993 33.8907 19.5413 40.6491 8.16915 47.3933C7.71765 47.6614 7.19561 47.9013 6.67356 47.9718C5.29084 48.1552 4.06333 46.9983 4.00689 45.545C3.97868 44.8819 3.99279 44.2187 3.99279 43.5415C4.00689 37.023 4.00689 30.5044 4.00689 23.9859Z" fill="currentColor"/>
</svg>
