<svg width="189" height="189" viewBox="0 0 189 189" fill="none" xmlns="http://www.w3.org/2000/svg">
<g clip-path="url(#clip0_86_497)">
<path d="M94.5 188.811C89.964 184.464 85.617 180.117 81.27 175.77C67.662 161.973 54.621 147.609 43.848 131.544C35.532 119.07 28.35 106.029 24.57 91.2868C15.876 57.2668 31.563 22.6798 63.126 7.18183C101.304 -11.7182 149.121 8.12684 162.918 48.3838C168.588 64.8268 167.832 81.2698 162.729 97.5238C156.114 118.314 144.963 136.269 131.355 152.901C120.582 165.942 108.486 177.471 95.445 188.055C95.067 188.433 94.878 188.433 94.5 188.811Z" fill="white"/>
<path fill-rule="evenodd" clip-rule="evenodd" d="M116.64 49.0962L95.304 94.9042H141L119.664 49.0962H116.64Z" fill="#0A64A4"/>
<path fill-rule="evenodd" clip-rule="evenodd" d="M75.872 49.0962C82.144 49.0962 87.912 51.6722 92.056 55.8162C96.2 59.9602 98.776 65.6722 98.776 72.0002C98.776 78.2722 96.2 84.0402 92.056 88.1842C87.912 92.3282 82.2 94.9042 75.872 94.9042H59.408H57V49.0962H75.872Z" fill="#0A64A4"/>
</g>
<defs>
<clipPath id="clip0_86_497">
<rect width="189" height="189" fill="white"/>
</clipPath>
</defs>
</svg>
