<svg width="72" height="72" viewBox="0 0 72 72" fill="none" xmlns="http://www.w3.org/2000/svg">
<path d="M30.7513 10.053C30.7513 10.2858 30.7725 10.4763 30.7725 10.6456C30.7725 21.3757 30.7936 32.1271 30.7302 42.8572C30.709 46.7302 29.8836 50.4339 27.7037 53.7355C25.418 57.1852 22.1376 59.3651 18.3704 60.8678C14.8783 62.2223 11.2169 62.963 7.4709 63.2805C5.24868 63.471 3.02645 63.5556 0.804233 63.6614C0.550264 63.6826 0.296296 63.6614 0 63.6614C0 61.4604 0 59.3228 0 57.1853C1.37566 57.0583 2.75132 56.9948 4.10582 56.8043C6.58201 56.4657 8.93122 55.7038 10.963 54.1588C13.8624 51.9366 15.1111 48.8678 15.4074 45.3546C15.5132 44.1059 15.4074 42.836 15.4286 41.5662C15.4286 41.0371 15.2169 40.8466 14.6667 40.8466C10.0741 40.8678 5.48148 40.8678 0.888889 40.8678C0.613757 40.8678 0.338624 40.8678 0 40.8678C0 30.5821 0 20.3387 0 10.053C10.2222 10.053 20.4444 10.053 30.7513 10.053Z" fill="#0A64A4"/>
<path d="M41.2065 10.0317C51.4499 10.0317 61.6722 10.0317 71.9579 10.0317C71.979 10.2645 72.0002 10.4973 72.0002 10.709C72.0002 21.1852 72.0214 31.6614 71.979 42.1587C71.979 45.0794 71.5769 47.9365 70.4975 50.6878C68.7409 55.1534 65.4605 58.1587 61.1854 60.1693C57.9473 61.6931 54.5187 62.6032 50.9632 63.0053C47.979 63.3439 44.9949 63.4709 42.0108 63.6825C41.7568 63.7037 41.5028 63.6825 41.2065 63.6825C41.2065 61.4815 41.2065 59.3439 41.2065 57.2063C42.6034 57.0794 43.979 57.0159 45.3335 56.8042C48.6774 56.2963 51.7251 55.1323 53.9473 52.4233C55.7251 50.2645 56.4658 47.7037 56.6351 44.9524C56.7198 43.619 56.6563 42.2857 56.6563 40.8466C51.4076 40.8466 46.3071 40.8466 41.2065 40.8466C41.2065 30.5397 41.2065 20.2963 41.2065 10.0317Z" fill="#0A64A4"/>
</svg>
