<svg width="574" height="82" viewBox="0 0 574 82" fill="none" xmlns="http://www.w3.org/2000/svg">
<path fill-rule="evenodd" clip-rule="evenodd" d="M424.951 16.4971H467.427V20.7086H429.161V41.9571H454.799V46.1686H429.161V75.6486H467.427V79.86H424.951V16.4971ZM310.343 20.7086V75.6486H328.711C336.173 75.6486 343.061 72.5857 348.035 67.6086C353.01 62.6314 356.071 55.74 356.071 48.2743C356.071 40.8086 353.01 33.9171 348.035 28.94C343.061 23.9629 336.173 20.9 328.711 20.9H310.343V20.7086ZM306.133 16.4971C313.595 16.4971 321.057 16.4971 328.711 16.4971C337.512 16.4971 345.357 20.1343 351.097 25.8771C356.837 31.62 360.472 39.4686 360.472 48.2743C360.472 57.08 356.837 64.9286 351.097 70.6714C345.357 76.4143 337.512 80.0514 328.711 80.0514C321.249 80.0514 313.787 80.0514 306.133 80.0514V16.4971ZM171.243 55.1657L194.586 5.01143L217.929 55.1657H171.243ZM191.907 0.608566L154.98 80.0514H159.572L169.139 59.5686H219.842L229.409 80.0514H234.001L197.073 0.799996H191.907V0.608566ZM246.82 16.4971L287.957 72.9686V16.4971H292.166V79.86H287.765L246.82 23.58V79.86H242.611V16.4971H246.82ZM4.20933 75.84H32.718C42.476 75.84 51.2773 71.82 57.7827 65.5029C64.288 58.9943 68.1147 50.1886 68.1147 40.4257C68.1147 30.6629 64.0967 21.8571 57.7827 15.3486C51.2773 8.84 42.476 5.01143 32.718 5.01143H4.20933V75.84ZM4.20933 0.608566H32.718C43.624 0.608566 53.5733 5.01142 60.6527 12.2857C67.9233 19.56 72.324 29.3229 72.324 40.2343C72.324 51.1457 67.9233 61.1 60.6527 68.1829C53.382 75.4571 43.624 79.86 32.718 79.86H4.20933H0V0.608566H4.20933ZM475.655 16.4971H518.131V20.7086H479.864V41.9571H505.503V46.1686H479.864V75.6486H518.131V79.86H475.655V16.4971ZM94.71 54.4C94.9013 55.5486 95.0927 56.6971 95.4753 57.8457C97.006 63.3971 99.876 67.8 103.894 71.0543C107.912 74.3086 113.078 76.4143 118.818 76.9886C122.071 77.18 125.515 77.18 129.15 76.4143L129.724 80.6257C125.706 81.3914 121.879 81.5829 118.435 81.2C111.739 80.6257 105.807 78.1371 101.215 74.3086C96.6233 70.48 93.1793 65.12 91.4573 58.8029C91.0747 57.6543 90.8833 56.5057 90.692 55.3571C92.0313 55.3571 93.562 54.9743 94.71 54.4ZM82.082 16.88C83.6127 16.4971 85.1433 16.3057 86.8653 15.9229C91.6487 15.3486 98.3453 15.3486 102.937 16.6886C115.565 20.3257 118.053 34.4914 108.103 42.5314C106.19 44.0629 103.894 45.2114 101.598 45.9771C101.789 45.02 101.981 43.8714 101.981 42.7229C101.981 42.34 101.981 41.7657 101.981 41.3829C103.129 40.8086 104.468 40.2343 105.616 39.2771C112.887 33.5343 110.973 23.58 101.789 20.9C97.7713 19.7514 91.6487 19.7514 87.4393 20.3257C87.0567 20.3257 86.674 20.5171 86.2913 20.5171V80.0514H82.082C82.082 58.9943 82.082 37.9371 82.082 16.88ZM382.858 54.4C383.049 55.5486 383.241 56.6971 383.623 57.8457C385.154 63.3971 388.024 67.8 392.042 71.0543C396.06 74.3086 401.226 76.4143 406.966 76.9886C410.219 77.18 413.663 77.18 417.298 76.4143L417.872 80.6257C413.854 81.3914 410.027 81.5829 406.583 81.2C399.887 80.6257 393.955 78.1371 389.363 74.3086C384.771 70.48 381.327 65.12 379.605 58.8029C379.223 57.6543 379.031 56.5057 378.84 55.3571C380.179 55.3571 381.519 54.9743 382.858 54.4ZM370.23 16.88C371.761 16.4971 373.291 16.3057 375.013 15.9229C379.797 15.3486 386.493 15.3486 391.085 16.6886C403.713 20.3257 406.201 34.4914 396.251 42.5314C394.338 44.0629 392.042 45.2114 389.746 45.9771C389.937 45.02 390.129 43.8714 390.129 42.7229C390.129 42.34 390.129 41.7657 390.129 41.3829C391.277 40.8086 392.616 40.2343 393.764 39.2771C401.035 33.5343 399.121 23.58 389.937 20.9C385.919 19.7514 379.797 19.7514 375.587 20.3257C375.205 20.3257 374.822 20.5171 374.439 20.5171V80.0514H370.23C370.23 58.9943 370.23 37.9371 370.23 16.88ZM528.271 16.4971L548.935 73.16L569.599 16.4971H574L550.849 79.86H546.831L523.679 16.4971H528.271Z" fill="white"/>
<path d="M90.3094 51.9114C90.118 49.04 90.3094 46.1686 90.5007 42.9143C93.3707 42.9143 96.0494 42.9143 98.5367 42.5314V42.7229C98.5367 45.2114 97.58 47.5086 95.858 49.2314C94.3274 50.7629 92.414 51.72 90.3094 51.9114ZM378.266 51.9114C378.075 49.04 378.266 46.1686 378.457 42.9143C381.327 42.9143 384.006 42.9143 386.493 42.5314V42.7229C386.493 45.2114 385.537 47.5086 383.815 49.2314C382.475 50.7629 380.562 51.72 378.266 51.9114Z" fill="#DB1F26"/>
</svg>
