<svg width="0" height="0" class="hidden">
  <symbol xmlns="http://www.w3.org/2000/svg" viewBox="0 0 20 34" id="ic_arr_hor">
    <path d="M8.39693 16.9365C8.67206 17.2328 8.86254 17.4233 9.05301 17.6349C12.3334 20.9153 15.635 24.1958 18.9154 27.4974C20.7356 29.3175 20.0371 32.2381 17.6456 32.9788C16.3969 33.3598 15.2541 33.0847 14.3229 32.1746C10.0266 27.8995 5.75143 23.6243 1.47629 19.328C0.142961 17.9947 0.142961 16.0688 1.45513 14.7143C5.77259 10.3545 10.09 6.01587 14.4498 1.71958C15.7197 0.470899 17.7938 0.576719 19.0001 1.84656C20.2276 3.13757 20.2276 5.14815 18.9154 6.46032C16.2488 9.14815 13.5821 11.8148 10.8943 14.4815C10.1112 15.2857 9.28582 16.0688 8.39693 16.9365Z" fill="currentColor"></path>
  </symbol>
  <symbol xmlns="http://www.w3.org/2000/svg" viewBox="0 0 9 17" id="ic_arr_hor2">
    <path d="M6.69468 8.6236C6.78226 8.53134 6.78002 8.40115 6.68439 8.31727C6.67345 8.30768 6.6629 8.29765 6.65261 8.28681C4.54922 6.0711 2.45424 3.86425 0.350848 1.64854C0.0816135 1.36493 -0.00252347 1.037 0.106853 0.655902C0.224644 0.2748 0.493877 0.0620915 0.864075 0.00891449C1.15855 -0.0353997 1.41096 0.0886802 1.6213 0.310251C2.33645 1.07246 3.06002 1.8258 3.78358 2.588C5.39899 4.28967 7.0144 5.99133 8.62139 7.68414C9.1262 8.21591 9.1262 8.72109 8.62139 9.26172C6.274 11.7345 3.93503 14.1983 1.58764 16.6711C1.13331 17.1497 0.485464 17.0965 0.157335 16.5736C-0.0782459 16.2013 -0.053005 15.7316 0.258297 15.3948C0.552772 15.0669 0.864075 14.7567 1.16696 14.4376C3.00954 12.4967 4.85211 10.5557 6.69468 8.6236Z" fill="currentColor"></path>
  </symbol>
  <symbol xmlns="http://www.w3.org/2000/svg" viewBox="0 0 85 48" id="ic_buttonUp">
    <path d="M42.3203 11.2072C41.9215 11.7409 41.7443 12.0967 41.4341 12.408C30.3555 23.5263 19.3213 34.6001 8.2427 45.7184C6.82465 47.1416 5.18502 47.5863 3.27951 47.0082C1.374 46.3856 0.31046 44.9624 0.0445742 43.0056C-0.176997 41.449 0.443403 40.1148 1.55126 39.003C5.36228 35.2228 9.12899 31.3981 12.94 27.5734C21.4483 19.0345 29.9567 10.4957 38.4207 2.00129C41.0795 -0.667098 43.6054 -0.667098 46.3086 2.00129C58.6723 14.4093 70.9916 26.7729 83.3553 39.1809C85.7483 41.5824 85.4824 45.0069 82.8678 46.7413C81.0066 47.9866 78.658 47.8532 76.9741 46.2077C75.3344 44.6511 73.7834 43.0056 72.1881 41.4045C62.4833 31.6649 52.7785 21.9253 43.118 12.1857C42.8964 11.9633 42.7635 11.7409 42.3203 11.2072Z" fill="currentColor"></path>
  </symbol>
  <symbol xmlns="http://www.w3.org/2000/svg" viewBox="0 0 24 24" id="ic_close">
    <path d="M23.3393 20.1593L15.18 12L23.3393 3.84069C24.2202 2.95978 24.2202 1.54159 23.3393 0.660679C22.4584 -0.220226 21.0402 -0.220226 20.1593 0.660679L12 8.81999L3.84069 0.660679C2.95978 -0.220226 1.54159 -0.220226 0.660679 0.660679C-0.220226 1.54159 -0.220226 2.95978 0.660679 3.84069L8.81999 12L0.660679 20.1593C-0.220226 21.0402 -0.220226 22.4584 0.660679 23.3393C1.54159 24.2202 2.95978 24.2202 3.84069 23.3393L12 15.18L20.1593 23.3393C21.0402 24.2202 22.4584 24.2202 23.3393 23.3393C24.214 22.4584 24.214 21.034 23.3393 20.1593Z" fill="currentColor"></path>
  </symbol>
  <symbol xmlns="http://www.w3.org/2000/svg" viewBox="0 0 108 36" id="ic_cookie">
    <path d="M54 24.4442L48.744 30.6362L38.772 18.9362L48.744 7.2002L54 13.3922" stroke="currentColor" stroke-width="3" stroke-miterlimit="10" stroke-linecap="round" stroke-linejoin="round" fill="none"></path>
    <path d="M35.316 30.6362L25.344 18.9362L35.316 7.2002" stroke="currentColor" stroke-width="3" stroke-miterlimit="10" stroke-linecap="round" stroke-linejoin="round" fill="none"></path>
    <path d="M35.3159 30.6362H48.7439" stroke="currentColor" stroke-width="3" stroke-miterlimit="10" stroke-linecap="round" stroke-linejoin="round" fill="none"></path>
    <path d="M25.344 18.936H38.772" stroke="currentColor" stroke-width="3" stroke-miterlimit="10" stroke-linecap="round" stroke-linejoin="round" fill="none"></path>
    <path d="M35.3159 7.2002H48.7439" stroke="currentColor" stroke-width="3" stroke-miterlimit="10" stroke-linecap="round" stroke-linejoin="round" fill="none"></path>
    <path d="M77.9399 24.4442L72.6839 30.6362L62.7119 18.9362L72.6839 7.2002L77.9399 13.3922" stroke="currentColor" stroke-width="3" stroke-miterlimit="10" stroke-linecap="round" stroke-linejoin="round" fill="none"></path>
    <path d="M59.2559 30.6362L49.2839 18.9362L59.2559 7.2002" stroke="currentColor" stroke-width="3" stroke-miterlimit="10" stroke-linecap="round" stroke-linejoin="round" fill="none"></path>
    <path d="M59.2559 30.6362H72.6839" stroke="currentColor" stroke-width="3" stroke-miterlimit="10" stroke-linecap="round" stroke-linejoin="round" fill="none"></path>
    <path d="M49.2839 18.936H62.7119" stroke="currentColor" stroke-width="3" stroke-miterlimit="10" stroke-linecap="round" stroke-linejoin="round" fill="none"></path>
    <path d="M59.2559 7.2002H72.6839" stroke="currentColor" stroke-width="3" stroke-miterlimit="10" stroke-linecap="round" stroke-linejoin="round" fill="none"></path>
    <path fill-rule="evenodd" clip-rule="evenodd" d="M96.5881 30.6362L86.6521 18.9362L96.5881 7.2002L106.56 18.9362L96.5881 30.6362Z" stroke="currentColor" stroke-width="3" stroke-miterlimit="10" stroke-linecap="round" stroke-linejoin="round" fill="none"></path>
    <path d="M83.1961 30.6362L73.2241 18.9362L83.1961 7.2002" stroke="currentColor" stroke-width="3" stroke-miterlimit="10" stroke-linecap="round" stroke-linejoin="round" fill="none"></path>
    <path d="M83.196 30.6362H96.588" stroke="currentColor" stroke-width="3" stroke-miterlimit="10" stroke-linecap="round" stroke-linejoin="round" fill="none"></path>
    <path d="M73.2241 18.936H86.6521" stroke="currentColor" stroke-width="3" stroke-miterlimit="10" stroke-linecap="round" stroke-linejoin="round" fill="none"></path>
    <path d="M83.196 7.2002H96.588" stroke="currentColor" stroke-width="3" stroke-miterlimit="10" stroke-linecap="round" stroke-linejoin="round" fill="none"></path>
    <path d="M30.06 24.4442L24.804 30.6362L14.832 18.9362L24.804 7.2002L30.06 13.3922" stroke="currentColor" stroke-width="3" stroke-miterlimit="10" stroke-linecap="round" stroke-linejoin="round" fill="none"></path>
    <path d="M11.4119 30.6362L1.43994 18.9362L11.4119 7.2002" stroke="currentColor" stroke-width="3" stroke-miterlimit="10" stroke-linecap="round" stroke-linejoin="round" fill="none"></path>
    <path d="M11.4119 30.6362H24.8039" stroke="currentColor" stroke-width="3" stroke-miterlimit="10" stroke-linecap="round" stroke-linejoin="round" fill="none"></path>
    <path d="M1.43994 18.936H14.8319" stroke="currentColor" stroke-width="3" stroke-miterlimit="10" stroke-linecap="round" stroke-linejoin="round" fill="none"></path>
    <path d="M11.4119 7.2002H24.8039" stroke="currentColor" stroke-width="3" stroke-miterlimit="10" stroke-linecap="round" stroke-linejoin="round" fill="none"></path>
  </symbol>
  <symbol xmlns="http://www.w3.org/2000/svg" viewBox="0 0 24 19" id="ic_filter">
    <path d="M14.6667 18.7816C14.6667 18.654 14.6667 18.5689 14.6667 18.4838C14.6667 15.9478 14.6667 13.4118 14.6667 10.8758C14.6667 10.7141 14.712 10.5865 14.8209 10.4588C17.4785 7.42925 20.1361 4.40819 22.7937 1.37862C23.1927 0.927592 23.5828 0.476561 24 0C15.9819 0 8.00907 0 0 0C0.0272121 0.0510601 0.0544224 0.0936102 0.0816326 0.12765C3.09297 3.55719 6.10431 6.98673 9.11565 10.4163C9.2517 10.5694 9.31519 10.7226 9.31519 10.9269C9.30612 12.4416 9.31519 13.9564 9.30612 15.4712C9.30612 15.5818 9.31519 15.6669 9.44218 15.7435C11.1383 16.7307 12.8254 17.7264 14.5215 18.7135C14.5669 18.7391 14.6032 18.7561 14.6667 18.7816Z" fill="currentColor"></path>
  </symbol>
  <symbol xmlns="http://www.w3.org/2000/svg" viewBox="0 0 26 26" id="ic_telegram">
    <path d="M0.000121092 12.974C0.000121092 9.776 0.000121092 6.578 0.000121092 3.38C0.000121092 2.132 0.468121 1.144 1.56012 0.468002C2.02812 0.182002 2.57412 0.052002 3.12012 0.052002C9.67212 0.052002 16.2501 0.052002 22.8021 0.052002C24.5701 0.052002 25.9741 1.456 25.9741 3.224C25.9741 9.75 25.9741 16.25 25.9741 22.776C25.9741 24.518 24.5961 25.922 22.8281 25.974C22.4381 25.974 22.0221 25.974 21.6321 25.974C15.4961 25.974 9.38612 25.974 3.25012 25.974C1.74212 25.974 0.520121 25.09 0.104121 23.712C0.000121091 23.348 -0.0258789 22.932 -0.0258789 22.542C0.000121092 19.318 0.000121092 16.146 0.000121092 12.974ZM12.8961 16.796C12.9741 16.848 13.0261 16.874 13.0781 16.926C14.2481 17.784 15.3921 18.642 16.5621 19.474C17.2121 19.942 17.8101 19.734 17.9661 18.928C18.2001 17.758 18.4601 16.614 18.6941 15.444C19.2921 12.636 19.8641 9.828 20.4621 6.994C20.5141 6.734 20.5401 6.526 20.3061 6.318C20.0981 6.136 19.8641 6.188 19.6301 6.292C14.6381 8.138 9.64612 9.984 4.65412 11.83C4.39412 11.934 4.18612 12.09 4.18612 12.402C4.18612 12.714 4.39412 12.844 4.68012 12.948C5.82412 13.286 6.94212 13.65 8.08612 13.988C8.26812 14.04 8.34612 14.118 8.39812 14.3C8.84012 15.652 9.30812 17.03 9.75012 18.382C9.95812 19.032 10.4001 19.136 10.8941 18.668C11.5701 18.044 12.2201 17.42 12.8961 16.796Z" fill="currentColor"></path>
    <path d="M10.2961 17.316C10.0101 16.406 9.75007 15.522 9.49007 14.612C9.41207 14.326 9.20407 13.962 9.30807 13.728C9.38607 13.494 9.77607 13.39 10.0101 13.234C12.3761 11.726 14.7421 10.244 17.1081 8.73601C17.2381 8.65801 17.4981 8.58001 17.5241 8.63201C17.6541 8.84001 17.4201 8.89201 17.3161 8.99601C15.1581 10.946 13.0001 12.896 10.8421 14.846C10.6861 15.002 10.5821 15.132 10.5561 15.366C10.5041 15.99 10.4261 16.64 10.3481 17.264C10.3481 17.29 10.3221 17.29 10.2961 17.316Z" fill="currentColor"></path>
  </symbol>
  <symbol xmlns="http://www.w3.org/2000/svg" viewBox="0 0 48 48" id="ic_video_play">
    <path d="M4.00689 23.9859C4.00689 16.903 4.00689 9.82013 4.00689 2.73724C4.00689 1.34042 4.74058 0.366872 5.9822 0.0705753C6.77233 -0.126956 7.44957 0.155231 8.11271 0.550293C11.6683 2.66669 15.2238 4.7831 18.7794 6.8995C26.5818 11.5415 34.3984 16.1976 42.2009 20.8395C44.5713 22.2505 44.6136 25.7214 42.2714 27.1182C30.8993 33.8907 19.5413 40.6491 8.16915 47.3933C7.71765 47.6614 7.19561 47.9013 6.67356 47.9718C5.29084 48.1552 4.06333 46.9983 4.00689 45.545C3.97868 44.8819 3.99279 44.2187 3.99279 43.5415C4.00689 37.023 4.00689 30.5044 4.00689 23.9859Z" fill="currentColor"></path>
  </symbol>
</svg>